HIERARCHY
ROOT joint_Root
{
	OFFSET 0.0 0.0 0.0
	CHANNELS 6 Xposition Yposition Zposition Zrotation Xrotation Yrotation 
	JOINT Hips
	{
		OFFSET 4.5925 91.4895 -427.239
		CHANNELS 6 Xposition Yposition Zposition Zrotation Xrotation Yrotation 
		JOINT Spine
		{
			OFFSET 15.7357 0.0 0.0
			CHANNELS 6 Xposition Yposition Zposition Zrotation Xrotation Yrotation 
			JOINT Chest
			{
				OFFSET 8.98455 -0.406207 0.0
				CHANNELS 6 Xposition Yposition Zposition Zrotation Xrotation Yrotation 
				JOINT Neck
				{
					OFFSET 16.3773 0.0 0.0
					CHANNELS 6 Xposition Yposition Zposition Zrotation Xrotation Yrotation 
					JOINT Head
					{
						OFFSET 6.45672 0.0 0.0
						CHANNELS 6 Xposition Yposition Zposition Zrotation Xrotation Yrotation 
						End Site
						{
							OFFSET 0.0 0.0 0.0
						}
					}
				}
				JOINT Shoulder_L
				{
					OFFSET 12.9942 -0.242716 4.98039
					CHANNELS 6 Xposition Yposition Zposition Zrotation Xrotation Yrotation 
					JOINT UpperArm_L
					{
						OFFSET 5.34809 0.0 0.0
						CHANNELS 6 Xposition Yposition Zposition Zrotation Xrotation Yrotation 
						JOINT LowerArm_L
						{
							OFFSET 24.3286 1.87007e-05 0.0
							CHANNELS 6 Xposition Yposition Zposition Zrotation Xrotation Yrotation 
							JOINT Hand_L
							{
								OFFSET 22.2916 0.0 0.0
								CHANNELS 6 Xposition Yposition Zposition Zrotation Xrotation Yrotation 
								End Site
								{
									OFFSET 0.0 0.0 0.0
								}
							}
						}
					}
				}
				JOINT Shoulder_R
				{
					OFFSET 12.9945 -0.242716 -4.98039
					CHANNELS 6 Xposition Yposition Zposition Zrotation Xrotation Yrotation 
					JOINT UpperArm_R
					{
						OFFSET -5.34813 0.0 0.0
						CHANNELS 6 Xposition Yposition Zposition Zrotation Xrotation Yrotation 
						JOINT LowerArm_R
						{
							OFFSET -24.3289 0.000322201 0.0
							CHANNELS 6 Xposition Yposition Zposition Zrotation Xrotation Yrotation 
							JOINT Hand_R
							{
								OFFSET -22.2915 -0.000108084 0.0
								CHANNELS 6 Xposition Yposition Zposition Zrotation Xrotation Yrotation 
								End Site
								{
									OFFSET 0.0 0.0 0.0
								}
							}
						}
					}
				}
			}
		}
		JOINT UpperLeg_L
		{
			OFFSET -2.19248 -6.46944 0.0
			CHANNELS 6 Xposition Yposition Zposition Zrotation Xrotation Yrotation 
			JOINT LowerLeg_L
			{
				OFFSET 39.0811 0.0 -1.23785e-05
				CHANNELS 6 Xposition Yposition Zposition Zrotation Xrotation Yrotation 
				JOINT Foot_L
				{
					OFFSET 40.9854 0.0 -1.26872e-05
					CHANNELS 6 Xposition Yposition Zposition Zrotation Xrotation Yrotation 
					JOINT Toes_L
					{
						OFFSET 11.7543 0.0 0.0
						CHANNELS 6 Xposition Yposition Zposition Zrotation Xrotation Yrotation 
						End Site
						{
							OFFSET 0.0 0.0 0.0
						}
					}
				}
			}
		}
		JOINT UpperLeg_R
		{
			OFFSET -2.19251 6.46944 0.0
			CHANNELS 6 Xposition Yposition Zposition Zrotation Xrotation Yrotation 
			JOINT LowerLeg_R
			{
				OFFSET -39.0811 -0.00228153 -0.0401928
				CHANNELS 6 Xposition Yposition Zposition Zrotation Xrotation Yrotation 
				JOINT Foot_R
				{
					OFFSET -40.9854 0.0 0.0
					CHANNELS 6 Xposition Yposition Zposition Zrotation Xrotation Yrotation 
					JOINT Toes_R
					{
						OFFSET -11.7543 0.0 0.0
						CHANNELS 6 Xposition Yposition Zposition Zrotation Xrotation Yrotation 
						End Site
						{
							OFFSET 0.0 0.0 0.0
						}
					}
				}
			}
		}
	}
}
MOTION
Frames:	4
Frame Time:	0.0333333
0.000000 0.000000 0.000000 0.000000 0.000000 -0.000000 0.685387 90.395900 -0.783742 90.475500 -4.009730 12.126400 15.735700 0.000005 -0.000001 88.348400 81.709400 -88.726800 8.984550 -0.406207 -0.000000 8.807070 -0.478916 -0.719240 16.377300 -0.000001 -0.000001 7.887920 -2.975030 2.409200 6.456720 -0.000001 -0.000000 -0.884708 -2.241260 3.300970 12.994200 -0.242716 4.980390 -91.907900 6.566130 -73.758300 5.348090 -0.000007 -0.000001 -61.176200 41.462600 -16.729500 24.328600 0.000019 0.000005 8.654670 22.715400 -21.512900 22.291600 -0.000001 0.000005 9.368690 5.320450 -0.508640 12.994500 -0.242716 -4.980390 88.293900 11.687400 -81.635500 -5.348130 -0.000001 -0.000004 -62.373400 33.372300 -10.987200 -24.328900 0.000322 -0.000009 2.453650 6.809000 -19.879000 -22.291500 -0.000108 -0.000004 13.295000 5.404910 -3.097790 -2.192480 -6.469440 -0.000000 -175.959000 -13.691400 2.047030 39.081100 -0.000007 -0.000012 -0.163482 0.261397 32.022900 40.985400 -0.000006 -0.000013 1.024720 4.023830 -71.776700 11.754300 -0.000000 0.000003 -0.000178 -0.001680 -16.641100 -2.192510 6.469440 -0.000001 171.137000 20.153100 -177.200000 -39.081100 -0.002282 -0.040193 -0.190790 0.306077 32.379400 -40.985400 0.000008 0.000006 2.167260 10.497500 -72.027400 -11.754300 -0.000006 -0.000006 -0.002972 -0.040285 -18.211400
0.000000 0.000000 0.000000 0.000000 0.000000 -0.000000 0.715815 90.397700 -0.861088 90.488700 -4.092730 12.141500 15.735700 0.000005 -0.000001 88.573500 81.770600 -89.012300 8.984550 -0.406207 -0.000000 8.686410 -0.411239 -0.845595 16.377300 -0.000001 -0.000001 8.084400 -2.862550 2.361390 6.456720 -0.000001 -0.000000 -0.732071 -2.132330 2.989820 12.994200 -0.242716 4.980390 -91.874900 6.456630 -73.769600 5.348090 -0.000007 -0.000001 -61.353500 41.366900 -16.642100 24.328600 0.000019 0.000005 8.752120 22.860600 -21.617600 22.291600 -0.000001 0.000005 9.289410 5.321690 -0.544615 12.994500 -0.242716 -4.980390 88.337000 11.512000 -81.722900 -5.348130 -0.000001 -0.000004 -62.499300 33.291700 -11.080200 -24.328900 0.000322 -0.000009 2.397300 6.452040 -20.441600 -22.291500 -0.000108 -0.000004 13.358000 5.406460 -3.148560 -2.192480 -6.469440 -0.000000 -175.999000 -13.733500 1.996960 39.081100 -0.000007 -0.000012 -0.160658 0.256671 32.044000 40.985400 -0.000006 -0.000013 1.040220 3.972620 -71.737900 11.754300 -0.000000 0.000003 -0.000175 -0.001653 -16.640100 -2.192510 6.469440 -0.000001 171.139000 20.067000 -177.282000 -39.081100 -0.002282 -0.040193 -0.194056 0.310929 32.404300 -40.985400 0.000008 0.000006 2.066660 10.507900 -71.949800 -11.754300 -0.000006 -0.000006 -0.002910 -0.039583 -18.182800
0.000000 0.000000 0.000000 0.000000 0.000000 -0.000000 0.736255 90.401000 -0.913727 90.483100 -4.101830 12.204700 15.735700 0.000005 -0.000001 88.652900 81.821300 -89.144200 8.984550 -0.406207 -0.000000 8.585420 -0.386187 -0.952657 16.377300 -0.000001 -0.000001 8.275370 -2.717240 2.244060 6.456720 -0.000001 -0.000000 -0.574494 -2.036860 2.735370 12.994200 -0.242716 4.980390 -91.838900 6.333250 -73.772400 5.348090 -0.000007 -0.000001 -61.397300 41.506500 -16.638600 24.328600 0.000019 0.000005 8.706990 22.718400 -21.630400 22.291600 -0.000001 0.000005 9.289640 5.321200 -0.530185 12.994500 -0.242716 -4.980390 88.369100 11.328200 -81.752700 -5.348130 -0.000001 -0.000004 -62.577200 32.652100 -11.152800 -24.328900 0.000322 -0.000009 2.510860 6.398510 -21.487200 -22.291500 -0.000108 -0.000004 13.224100 5.406970 -3.165530 -2.192480 -6.469440 -0.000000 -176.008000 -13.710100 2.020460 39.081100 -0.000007 -0.000012 -0.159467 0.254691 32.051700 40.985400 -0.000006 -0.000013 1.042250 3.917340 -71.709400 11.754300 -0.000000 0.000003 -0.000169 -0.001605 -16.638400 -2.192510 6.469440 -0.000001 171.102000 20.104100 -177.248000 -39.081100 -0.002282 -0.040193 -0.196276 0.314461 32.401400 -40.985400 0.000008 0.000006 2.050430 10.557600 -71.904200 -11.754300 -0.000006 -0.000006 -0.003082 -0.041521 -18.261700
0.000000 0.000000 0.000000 0.000000 0.000000 -0.000000 0.766103 90.409000 -0.983722 90.469600 -4.212750 12.213900 15.735700 0.000005 -0.000001 88.815900 81.876600 -89.353100 8.984550 -0.406207 -0.000000 8.476000 -0.337476 -1.048370 16.377300 -0.000001 -0.000001 8.455750 -2.558350 2.100420 6.456720 -0.000001 -0.000000 -0.434910 -1.892450 2.457550 12.994200 -0.242716 4.980390 -91.797500 6.189500 -73.771600 5.348090 -0.000007 -0.000001 -61.478200 41.528500 -16.609400 24.328600 0.000019 0.000005 8.702750 22.654800 -21.672800 22.291600 -0.000001 0.000005 9.322040 5.319180 -0.472079 12.994500 -0.242716 -4.980390 88.398900 11.125800 -81.757900 -5.348130 -0.000001 -0.000004 -62.404700 31.610500 -11.420200 -24.328900 0.000322 -0.000009 2.552850 5.986200 -23.157400 -22.291500 -0.000108 -0.000004 13.039600 5.404050 -3.069720 -2.192480 -6.469440 -0.000000 -176.010000 -13.768000 1.993690 39.081100 -0.000007 -0.000012 -0.159668 0.255062 32.046700 40.985400 -0.000006 -0.000013 1.051990 3.868270 -71.668900 11.754300 -0.000000 0.000003 -0.000167 -0.001590 -16.637800 -2.192510 6.469440 -0.000001 171.121000 20.060900 -177.311000 -39.081100 -0.002282 -0.040193 -0.197914 0.317196 32.388900 -40.985400 0.000008 0.000006 2.029140 10.640500 -71.823300 -11.754300 -0.000006 -0.000006 -0.003030 -0.040943 -18.238200
